<svg width="28" height="28" viewBox="0 0 28 28" fill="none" xmlns="http://www.w3.org/2000/svg">
<circle cx="14" cy="14" r="14" fill="#17171C"/>
<circle cx="14" cy="14" r="12" fill="#72CE56"/>
<path d="M26 14C26 11.3584 25.1284 8.79059 23.5202 6.69486C21.9121 4.59913 19.6574 3.09259 17.1058 2.40889C14.5542 1.72519 11.8483 1.90254 9.4078 2.91345C6.96727 3.92435 4.9285 5.7123 3.6077 8C2.28689 10.2877 1.75786 12.9473 2.10266 15.5663C2.44746 18.1853 3.64682 20.6174 5.51472 22.4853C7.38262 24.3532 9.81467 25.5525 12.4337 25.8973C15.0527 26.2421 17.7123 25.7131 20 24.3923L14 14H26Z" fill="#B0E7F4"/>
<path d="M26 14C26 11.8938 25.4456 9.82465 24.3926 8.00054C23.3396 6.17644 21.825 4.66163 20.0011 3.60832C18.1772 2.55502 16.1081 2.00033 14.0019 2C11.8957 1.99967 9.82644 2.55371 8.00218 3.60644C6.17791 4.65917 4.66286 6.17351 3.60927 7.99728C2.55568 9.82105 2.00066 11.89 2 13.9962C1.99934 16.1025 2.55305 18.1718 3.6055 19.9962C4.65794 21.8206 6.17204 23.3359 7.99565 24.3898L14 14H26Z" fill="#7CA3F9"/>
<path d="M26 14C26 12.4241 25.6896 10.8637 25.0866 9.4078C24.4835 7.95189 23.5996 6.62902 22.4853 5.51472C21.371 4.40042 20.0481 3.5165 18.5922 2.91345C17.1363 2.31039 15.5759 2 14 2C12.4241 2 10.8637 2.31039 9.4078 2.91345C7.95189 3.5165 6.62902 4.40042 5.51472 5.51472C4.40042 6.62902 3.5165 7.95189 2.91345 9.4078C2.31039 10.8637 2 12.4241 2 14L14 14H26Z" fill="#F7A9E4"/>
<path d="M26 14C26 11.8936 25.4455 9.82423 24.3923 8C23.3391 6.17577 21.8242 4.66091 20 3.60769C18.1758 2.55448 16.1064 2 14 2C11.8936 2 9.82423 2.55448 8 3.6077L14 14H26Z" fill="#FE7980"/>
<path d="M26 14C26 11.8936 25.4455 9.82423 24.3923 8C23.3391 6.17577 21.8242 4.66091 20 3.60769L14 14H26Z" fill="#F8E67D"/>
<circle cx="14" cy="14" r="8" fill="#17171C"/>
</svg>
