<svg width="130" height="32" viewBox="0 0 130 32" fill="none" xmlns="http://www.w3.org/2000/svg">
<path d="M122.181 28.4505L117.026 17.9452H114.44L113.263 17.6776L113.762 14.1104V13.5397H117.044C117.96 13.5397 118.703 13.397 119.274 13.1116C119.856 12.8144 120.284 12.3982 120.558 11.8631C120.843 11.3161 120.986 10.6622 120.986 9.90116C120.986 9.03315 120.808 8.38511 120.451 7.95705C120.094 7.52899 119.648 7.24361 119.113 7.10092C118.578 6.94635 118.031 6.86906 117.472 6.86906L114.743 6.85122L113.459 4.6574L113.245 2.51709C113.685 2.51709 114.143 2.51709 114.618 2.51709C115.094 2.51709 115.623 2.51709 116.206 2.51709C116.788 2.51709 117.46 2.51709 118.221 2.51709C120.659 2.51709 122.639 3.14729 124.161 4.4077C125.695 5.6681 126.461 7.57655 126.461 10.133C126.461 10.9892 126.325 11.8334 126.051 12.6657C125.778 13.4862 125.356 14.2412 124.785 14.9309C124.214 15.6087 123.477 16.1616 122.573 16.5896C121.681 17.0058 120.617 17.2377 119.381 17.2852L120.13 16.9999C120.629 16.9999 121.075 17.0415 121.467 17.1247C121.872 17.208 122.228 17.3625 122.538 17.5885C122.847 17.8144 123.102 18.1354 123.305 18.5516L128.12 28.4505H122.181ZM109.125 28.4505V2.51709H114.761V28.4505H109.125Z" fill="#2E96E5"/>
<path d="M95.7419 28.9858C93.6254 28.9858 91.8537 28.4507 90.4268 27.3805C89.0119 26.3104 87.9477 24.7646 87.2342 22.7432C86.5208 20.7099 86.1641 18.2426 86.1641 15.3413C86.1641 11.0844 86.9667 7.79668 88.5719 5.478C90.189 3.15933 92.579 2 95.7419 2C98.9048 2 101.289 3.15933 102.894 5.478C104.511 7.79668 105.32 11.0844 105.32 15.3413C105.32 18.2426 104.963 20.7099 104.25 22.7432C103.536 24.7646 102.466 26.3104 101.039 27.3805C99.6242 28.4507 97.8584 28.9858 95.7419 28.9858ZM95.7419 23.7777C97.0142 23.7777 97.9714 23.0999 98.6135 21.7444C99.2556 20.3769 99.5766 18.2426 99.5766 15.3413C99.5766 12.4994 99.2556 10.4364 98.6135 9.15221C97.9714 7.85613 97.0142 7.20809 95.7419 7.20809C94.4815 7.20809 93.5243 7.85613 92.8704 9.15221C92.2283 10.4364 91.9072 12.4994 91.9072 15.3413C91.9072 18.2426 92.2283 20.3769 92.8704 21.7444C93.5243 23.0999 94.4815 23.7777 95.7419 23.7777Z" fill="#7CB734"/>
<path d="M74.5332 28.9679C72.4286 28.9679 70.6628 28.4328 69.2359 27.3627C67.8091 26.2806 66.733 24.7289 66.0077 22.7075C65.2942 20.6742 64.9375 18.2247 64.9375 15.3591C64.9375 12.4816 65.3061 10.0559 66.0433 8.08202C66.7805 6.09629 67.8864 4.59213 69.3608 3.56953C70.8471 2.54694 72.6961 2.03564 74.9078 2.03564C76.6676 2.03564 78.1717 2.45776 79.4202 3.302C80.6687 4.13434 81.6081 5.31151 82.2383 6.83351C82.8804 8.35551 83.1539 10.145 83.0587 12.2021H77.8863C77.8269 11.239 77.6902 10.3888 77.4761 9.65159C77.2621 8.91437 76.9232 8.34362 76.4595 7.93934C76.0076 7.52316 75.3715 7.31508 74.551 7.31508C73.6949 7.31508 72.9636 7.59451 72.3572 8.15337C71.7627 8.71223 71.3109 9.59213 71.0017 10.7931C70.7044 11.994 70.5617 13.5577 70.5736 15.4839C70.5974 18.2188 70.9363 20.2699 71.5903 21.6373C72.2562 22.9929 73.2015 23.6706 74.4262 23.6706C75.1991 23.6706 75.8055 23.5577 76.2454 23.3317C76.6973 23.0939 77.0183 22.7491 77.2086 22.2973C77.3988 21.8335 77.488 21.2687 77.4761 20.6028H83.0231C83.0469 21.8157 82.8507 22.9334 82.4345 23.956C82.0302 24.9667 81.4476 25.8466 80.6866 26.5957C79.9256 27.3448 79.0219 27.9275 77.9755 28.3436C76.9292 28.7598 75.7817 28.9679 74.5332 28.9679Z" fill="#FB232E"/>
<path d="M42.1914 32.0001V29.3604H63.7371V32.0001H42.1914Z" fill="#0A0A0A"/>
<path d="M24.0508 28.4505V2.51709H38.9437V5.38867H25.9235L27.3683 4.01531V14.378L25.9235 13.4148H37.6774V16.2864H26.423L27.3683 15.2341V27.2377L25.9235 25.5254H39.7107V28.4505H24.0508Z" fill="#0A0A0A"/>
<path d="M5.31747 28.4505L4.51486 25.3471H8.49226C10.0856 25.3471 11.453 24.9666 12.5945 24.2056C13.736 23.4327 14.61 22.3031 15.2164 20.8168C15.8228 19.3304 16.126 17.5112 16.126 15.359C16.126 13.0879 15.8347 11.2389 15.2521 9.81198C14.6813 8.37322 13.8252 7.31496 12.6837 6.63719C11.5541 5.95942 10.151 5.62054 8.47442 5.62054H4.37217L5.31747 2.51709H8.08203C11.6611 2.51709 14.4613 3.53968 16.4827 5.58487C18.5041 7.63006 19.5148 10.8762 19.5148 15.3233C19.5148 18.2008 19.0273 20.6146 18.0523 22.5647C17.0773 24.5147 15.7336 25.9832 14.0214 26.9701C12.3091 27.9571 10.3353 28.4505 8.09987 28.4505H5.31747ZM2 28.4505V2.51709H5.31747V28.4505H2Z" fill="#0A0A0A"/>
</svg>
